<?xml version="1.0" standalone="no"?>
<!DOCTYPE svg PUBLIC "-//W3C//DTD SVG 1.1//EN" "http://www.w3.org/Graphics/SVG/1.1/DTD/svg11.dtd" >
<svg xmlns="http://www.w3.org/2000/svg">
<metadata>
Created by FontForge 20120731 at Sun May  1 15:41:51 2016
 By admin
</metadata>
<defs>
<font id="iconfont" horiz-adv-x="1024" >
  <font-face 
    font-family="iconfont"
    font-weight="500"
    font-stretch="normal"
    units-per-em="1024"
    panose-1="2 0 6 3 0 0 0 0 0 0"
    ascent="896"
    descent="-128"
    x-height="792"
    bbox="0 -128 1320 896"
    underline-thickness="50"
    underline-position="-100"
    unicode-range="U+0078-E6131"
  />
<missing-glyph horiz-adv-x="374" 
d="M34 0v682h272v-682h-272zM68 34h204v614h-204v-614z" />
    <glyph glyph-name=".notdef" horiz-adv-x="374" 
d="M34 0v682h272v-682h-272zM68 34h204v614h-204v-614z" />
    <glyph glyph-name=".null" horiz-adv-x="0" 
 />
    <glyph glyph-name="nonmarkingreturn" horiz-adv-x="341" 
 />
    <glyph glyph-name="x" unicode="x" horiz-adv-x="1001" 
d="M281 543q-27 -1 -53 -1h-83q-18 0 -36.5 -6t-32.5 -18.5t-23 -32t-9 -45.5v-76h912v41q0 16 -0.5 30t-0.5 18q0 13 -5 29t-17 29.5t-31.5 22.5t-49.5 9h-133v-97h-438v97zM955 310v-52q0 -23 0.5 -52t0.5 -58t-10.5 -47.5t-26 -30t-33 -16t-31.5 -4.5q-14 -1 -29.5 -0.5
t-29.5 0.5h-32l-45 128h-439l-44 -128h-29h-34q-20 0 -45 1q-25 0 -41 9.5t-25.5 23t-13.5 29.5t-4 30v167h911zM163 247q-12 0 -21 -8.5t-9 -21.5t9 -21.5t21 -8.5q13 0 22 8.5t9 21.5t-9 21.5t-22 8.5zM316 123q-8 -26 -14 -48q-5 -19 -10.5 -37t-7.5 -25t-3 -15t1 -14.5
t9.5 -10.5t21.5 -4h37h67h81h80h64h36q23 0 34 12t2 38q-5 13 -9.5 30.5t-9.5 34.5q-5 19 -11 39h-368zM336 498v228q0 11 2.5 23t10 21.5t20.5 15.5t34 6h188q31 0 51.5 -14.5t20.5 -52.5v-227h-327z" />
    <glyph glyph-name="uniE600" unicode="&#xe600;" 
d="M768 320h-512v128h512v-128z" />
    <glyph glyph-name="uniE601" unicode="&#xe601;" 
d="M405 120zM380 475q0 75 38.5 128.5t93.5 53.5t93.5 -53.5t38.5 -128.5q1 -3 3.5 -7t11.5 -11t21 -7t20.5 6t10.5 12l3 7q-6 108 -64 182.5t-138 74.5t-138 -74.5t-64 -182.5q1 -3 3 -7t10.5 -11t20.5 -7q14 0 23 6t11 12zM802 89q0 -24 -17 -40t-41 -16h-464
q-24 0 -41 16t-17 40v289q0 23 17 39.5t41 16.5h464q24 0 41 -16.5t17 -39.5v-289zM567 279q0 22 -16 37.5t-39 15.5t-39 -15.5t-16 -37.5q0 -26 20 -42q3 -2 4 -4t1 -8v-57q0 -27 7.5 -36t22 -9t22.5 9t8 36v57q-1 6 0 7q1 2 4 5q21 16 21 42z" />
    <glyph glyph-name="uniE602" unicode="&#xe602;" 
d="M945.5 512.5q-16.5 -16.5 -40 -16.5t-39.5 16l-114 114q-17 17 -17 40t16.5 39.5t40 16.5t39.5 -16l114 -115q17 -16 17 -39t-16.5 -39.5zM511.5 721q-23.5 0 -39.5 16.5t-16 40t16 39.5t39.5 16t40 -16t16.5 -39.5t-16.5 -40t-40 -16.5zM159 512q-17 -16 -40 -16
t-39.5 16.5t-16.5 39.5t17 39l114 115q16 16 39.5 16t40 -16.5t16.5 -39.5t-17 -40zM511.5 665q91.5 0 169 -45t122.5 -122.5t45 -168.5q0 -128 -88 -225l73 -73q16 -16 16 -39.5t-16.5 -39.5t-39.5 -16t-40 16l-79 79q-1 1 -1.5 2t-0.5 2q-78 -42 -160 -42t-159 41
q-1 0 -1.5 -1t-0.5 -2l-79 -79q-17 -16 -40 -16t-39.5 16t-16.5 39.5t16 39.5l72 72q-89 97 -89 226q0 91 45 168.5t122.5 122.5t169 45zM456 301q0 -12 8 -20t20 -8h224q11 0 19.5 8t8.5 19.5t-8.5 20t-19.5 8.5h-196v196q0 12 -8.5 20t-20 8t-19.5 -8t-8 -20v-224z" />
    <glyph glyph-name="uniE603" unicode="&#xe603;" 
d="M923 599h-249q99 64 106 125q6 51 -45 88q-35 25 -70 25q-91 0 -139 -157q-11 40 -25.5 74.5t-35 68.5t-48.5 53.5t-60 19.5q-39 0 -77 -31q-61 -49 -51 -110q13 -79 147 -156h-276q-15 0 -25.5 -10.5t-10.5 -24.5v-195q0 -15 10.5 -25.5t25.5 -10.5h10v-425
q0 -15 10.5 -25.5t25.5 -10.5h731q16 0 26.5 10.5t10.5 25.5v425h9q16 0 26.5 10.5t10.5 25.5v195q0 14 -10.5 24.5t-26.5 10.5zM887 408h-305v120h305v-120zM665 766q11 0 27 -12t15 -22q-2 -18 -35.5 -45.5t-82.5 -54.5q14 57 35 95.5t41 38.5zM301 766q-3 21 25 44
q18 15 31 15q28 0 57 -56t49 -135q-64 32 -110.5 67.5t-51.5 64.5zM446 528v-120h-309v120h309zM183 365h263v-422h-263v422zM582 -57v422h259v-422h-259z" />
    <glyph glyph-name="uniE604" unicode="&#xe604;" 
d="M512 814v71l-200 -100l200 -100v86q115 0 212.5 -56.5t154 -154t56.5 -212t-56.5 -212t-154 -154t-212.5 -56.5t-212.5 56.5t-154 154t-56.5 211.5q0 9 -6 15.5t-15 6.5t-15.5 -6.5t-6.5 -15.5q0 -94 37 -180.5t99.5 -148.5t148.5 -99t181 -37t181 37t148.5 99
t99.5 148.5t37 181t-37 180.5t-99.5 148.5t-148.5 99.5t-181 37zM512 571q-9 0 -15 -6.5t-6 -15.5v-228v-1q0 -5 1 -7q2 -4 5 -7l188 -188q6 -6 15 -6t15 6t6 15t-6 15l-182 182v219q0 9 -6 15.5t-15 6.5z" />
    <glyph glyph-name="uniE605" unicode="&#xe605;" 
d="M841 274q-44 0 -82 -19.5t-64 -53.5l-264 124q8 30 8 59t-8 59l264 124q26 -34 64 -53.5t82 -19.5q76 0 129.5 53.5t53.5 129t-53.5 129t-129.5 53.5t-129.5 -53.5t-53.5 -128.5q0 -20 6 -43l-264 -125q-31 44 -78.5 69t-102.5 25q-90 0 -154.5 -64t-64.5 -155t64.5 -155
t154.5 -64q55 0 102.5 25t78.5 69l264 -125q-6 -23 -6 -43q0 -75 53.5 -128.5t129.5 -53.5t129.5 53.5t53.5 129t-53.5 129t-129.5 53.5zM841.5 786q45.5 0 77.5 -32t32 -77.5t-32 -77.5t-77.5 -32t-78 32t-32.5 77.5t32.5 77.5t78 32zM219.5 238q-60.5 0 -103.5 43t-43 103
t43 103t103.5 43t103.5 -43t43 -103t-43 -103t-103.5 -43zM841.5 -18q-45.5 0 -78 32t-32.5 77.5t32.5 77.5t78 32t77.5 -32t32 -77.5t-32 -77.5t-77.5 -32z" />
    <glyph glyph-name="uniE606" unicode="&#xe606;" 
d="M268 553q0 99 71.5 168.5t172.5 69.5t172.5 -69.5t71.5 -168.5t-71.5 -169t-172.5 -70t-172.5 70t-71.5 169zM225 553q0 -84 46 -153t121 -103q-125 -35 -210 -134t-98 -229h43q16 143 126 240.5t259 97.5t259 -97.5t126 -240.5h43q-13 130 -98 229t-210 134
q75 34 121 103t46 153q0 116 -84 198.5t-203 82.5t-203 -82.5t-84 -198.5z" />
    <glyph glyph-name="uniE607" unicode="&#xe607;" 
d="M871 -4h-658v362l273 268q4 5 10.5 10.5t21 12t29.5 6.5q31 0 60 -29l264 -269v-361zM255 38h574v302l-252 257q-16 16 -30 16q-8 0 -15 -3.5t-11 -7.5l-3 -3l-2 -2l-261 -257v-302zM981 390l-361 357q-3 3 -8 7t-22 11.5t-34.5 9t-43 -8t-50.5 -32.5l-359 -343v-5
q0 -4 2 -13t7.5 -12.5t16 -6.5t27.5 5l326 323q2 3 6 6.5t16.5 11t25.5 10.5t30.5 -1t33.5 -18l342 -337q2 -1 6 -2t12.5 -1.5t15 2t10 12t1.5 25.5zM376 732h-142v-216l147 141zM567 334h46v-37h-46v37zM567 407v-37h46v37h-46zM472 334h46v-37h-46v37zM472 407v-37h46v37
h-46zM567 334h46v-37h-46v37zM567 407v-37h46v37h-46zM472 334h46v-37h-46v37zM472 407v-37h46v37h-46z" />
    <glyph glyph-name="uniE608" unicode="&#xe608;" 
d="M311 330q68 1 126 27q42 71 114 113q8 22 8 46q0 22 -7 44q-20 -62 -87 -102t-154 -40.5t-154 39.5t-87 102q-7 -22 -7 -44q0 -77 72.5 -131t175.5 -54zM311 199q44 0 85 12q1 47 17 92q-49 -16 -102 -17q-87 0 -154 40t-87 101q-7 -21 -7 -43q0 -77 72.5 -131t175.5 -54
zM311 70q56 0 107 18q-16 39 -20 81q-42 -12 -87 -12q-87 0 -154 39.5t-87 101.5q-7 -22 -7 -44q0 -77 72.5 -131t175.5 -53zM311 30q-87 0 -154 39.5t-87 101.5q-7 -22 -7 -44q0 -76 72.5 -130.5t175.5 -53.5q96 0 167 49q-26 28 -45 63q-56 -25 -122 -25zM311 461.5
q103 0.5 175.5 54.5t72.5 131t-72.5 131t-175.5 53.5t-175.5 -54.5t-72.5 -131t72.5 -131t175.5 -53.5zM190 734l119 -23l118 23l-17 -79l41 -79l-142 23l-143 -23l42 79zM700 463q-107 0 -183 -76t-76 -183t76 -183t183 -76t183 76t76 183t-76 183t-183 76zM840 64l-140 41
l-140 -41l41 140l-41 140l140 -41l140 41l-41 -140z" />
    <glyph glyph-name="uniE609" unicode="&#xe609;" 
d="M953 316h-169l-103 121q0 1 -1 1v1h-1v1h-1q0 1 -1 1q0 1 -1 1h-1v1h-1v1h-1h-1l-1 1q-2 1 -5 1h-1q-3 1 -5 1l-1 -1h-1h-1h-1h-1h-1v-1h-1h-1l-4 -2l-1 -1q-2 -1 -4 -3q0 -1 -1 -1q0 -1 -1 -1v-1l-1 -1v-1h-1v-1q0 -1 -1 -1v-1v-1q-1 0 -1 -1v-1l-98 -343l-104 727v2v1
h-1v1v1v1h-1v1v1l-1 1q0 1 -1 1v1l-1 1v1q-1 0 -1 0.5t-0.5 0.5t-0.5 1h-1v1h-1q0 1 -1 1l-1 1h-1v1h-1q-1 0 -1 1h-1h-1v1h-1q-3 1 -5 1h-1h-1h-1h-5h-1l-1 -1h-1v0h-1l-1 -1h-1l-1 -1h-1l-1 -1h-1q0 -1 -1 -1v-1h-1h-1v-1l-1 -1l-1 -1q0 -1 -1 -1v-1h-1v-1q0 -1 -1 -1v-1
v-1h-1v-1q0 -1 -1 -1v-2l-141 -509h-177q-10 0 -17.5 -7.5t-7.5 -18.5t7.5 -18.5t17.5 -7.5h192q1 0 2 1q2 -1 3 -1q19 0 24 19l114 411l103 -724v-1q0 -1 1 -2v-2v-1l1 -1v-1l1 -1v-1l1 -1v-1q1 0 2 -1q0 -1 1 -2l2 -2q2 -2 5 -3h1q0 -1 1 -1h1q1 -1 2 -1v0h2q1 -1 2 -1h3
h1v0h2v1h1h1h1q1 0 1 1h1q3 1 5 2t3 2v1q1 0 2 1l1 1v1q1 0 2 1v2h1q0 1 1 2v2q1 1 1 2v0l118 412l80 -94v-1l1 -1v0l1 -1h1v-1q1 -1 3 -2h1v-1h2v-1h1h1q1 0 1 -1h1h1h1h1h2h1v0h181q11 0 18.5 7t7.5 18t-7.5 18.5t-18.5 7.5z" />
    <glyph glyph-name="uniE60A" unicode="&#xe60a;" 
d="M702 616l-191 192l-191 -192l-14 14l198 198h14l198 -198zM501 821h20v-679h-20v679zM669 563v-20h137v-589h-589v589h151v20h-171v-629h628v629h-156z" />
    <glyph glyph-name="uniE60B" unicode="&#xe60b;" 
d="M793.5 794q-52.5 0 -90.5 -37.5t-38 -90.5q0 -10 3 -23l-394 -170q-38 39 -92 39q-53 0 -90.5 -37.5t-37.5 -90.5t37.5 -90.5t90.5 -37.5q32 0 63 17l289 -181q-8 -22 -8 -42q0 -53 37.5 -90.5t90.5 -37.5t90.5 37.5t37.5 90.5t-37.5 90.5t-90.5 37.5q-48 0 -84 -33
l-278 174q18 31 18 65q0 15 -5 33l390 168q39 -47 99 -47q52 0 90 37.5t38 90.5t-38 90.5t-90.5 37.5zM118 384q0 26 19 45t45 19t45 -19t19 -45t-19 -45t-45 -19t-45 19t-19 45zM654.5 114q26.5 0 45 -19t18.5 -45.5t-18.5 -45t-45 -18.5t-45.5 18.5t-19 45t19 45.5
t45.5 19zM793.5 602q-26.5 0 -45.5 18.5t-19 45t19 45.5t45.5 19t45 -19t18.5 -45.5t-18.5 -45t-45 -18.5z" />
    <glyph glyph-name="uniE60C" unicode="&#xe60c;" 
d="M0 384q0 -139 68.5 -257t186.5 -186.5t257 -68.5t257 68.5t186.5 186.5t68.5 257t-68.5 257t-186.5 186.5t-257 68.5t-257 -68.5t-186.5 -186.5t-68.5 -257zM43 384q0 95 37 182t100 150t150 100t182 37t182 -37t150 -100t100 -150t37 -182q0 -157 -94 -282
q-22 104 -95 182t-174 107q49 28 78 77t29 108q0 88 -62.5 150.5t-150.5 62.5t-150.5 -62.5t-62.5 -150.5q0 -59 29 -108t78 -77q-101 -29 -174 -107t-95 -182q-94 125 -94 282zM855 64q-65 -70 -154 -109.5t-189 -39.5t-189 39.5t-154 109.5h4q16 127 112.5 213t226.5 86
t226.5 -86t112.5 -213h4zM341 576q0 71 50 121t121 50t121 -50t50 -121t-50 -121t-121 -50t-121 50t-50 121z" />
    <glyph glyph-name="uniE60D" unicode="&#xe60d;" 
d="M251 337v-306q8 -19 28 -24h268v330h-296zM889 335v-304q-8 -19 -27 -24h-267v330h294v-2zM945 510q-1 10 -7.5 16.5t-11.5 9.5l-6 2h-91q19 14 34 38q15 25 15.5 57t-14.5 60q-31 61 -98 65q-32 3 -61 -16q-23 -14 -44 -41q-26 -33 -43 -77l-3 -6q-24 10 -48 9h-1
q-24 1 -48 -8q-3 8 -7.5 19t-17 33.5t-27 39.5t-37 30t-46.5 13q-31 0 -56 -10t-39 -26.5t-21 -29.5t-11 -25l34 -12l2 7q2 5 9 16.5t15.5 20.5t25 16.5t36.5 7.5q22 1 42 -13.5t34 -37.5t21.5 -38t12.5 -29q-14 -11 -14 -20t12 -19q-26 -5 -53 2t-49 20.5t-60.5 31
t-77.5 27.5q-114 18 -160 -34l-7 -8q1 -1 0 -8t6 -13t21 -3q58 52 163 19q11 -4 59 -26t76 -32h-184q-2 -1 -6 -2.5t-10.5 -8.5t-8.5 -17v-111h352v139h1q7 -1 19 -1q10 0 20 1h9l-1 -3l-1 -15h1v-121h350v111zM641 604q3 5 4 9q6 13 14 28t23 38t36.5 37t45.5 13
q50 -4 73 -49q11 -22 11.5 -46t-10.5 -42q-8 -13 -17.5 -22t-17 -13t-15 -6t-10.5 -2.5t-6 -0.5v1h-144q31 15 31 32q0 10 -18 23zM567 560q-9 0 -16 1q-1 2 -2 6q-8 16 -27 5q-3 4 -3 9q0 20 48 20q22 0 36 -6t14 -14q0 -9 -13 -15t-37 -6zM567 560z" />
    <glyph glyph-name="uniE60E" unicode="&#xe60e;" 
d="M887 365l-358 358q-5 5 -12.5 5t-12.5 -5l-268 -268h-1l-89 -90q-5 -5 -5 -12.5t5 -12.5t12.5 -5t12.5 5l59 59v-297q0 -29 21 -50t51 -21h125q7 0 12.5 5t5.5 13v161h161q7 0 12.5 5t5.5 12.5t-5.5 12.5t-12.5 5h-179q-7 0 -12.5 -5t-5.5 -12v-161h-107
q-15 0 -25.5 10.5t-10.5 24.5v333l250 250l345 -345q6 -5 13 -5t12.5 5t5.5 12.5t-5 12.5zM785 317q-8 0 -13 -5t-5 -13v-197q0 -14 -10.5 -24.5t-25.5 -10.5h-125q-8 0 -13 -5.5t-5 -13t5 -12.5t13 -5h125q30 0 51 21t21 50v197q0 8 -5.5 13t-12.5 5z" />
    <glyph glyph-name="uniE60F" unicode="&#xe60f;" 
d="M909 622l-99 98q-10 10 -20 0l-20 -19q-10 -10 0 -20l99 -99q10 -10 20 0l20 20q10 10 0 20zM840 612l-40 39l-34 -34q-112 102 -264 102q-106 0 -196 -52t-142.5 -142.5t-52.5 -196.5t52.5 -196t142.5 -142.5t196.5 -52.5t196.5 52.5t142.5 142.5t52.5 196
q0 141 -89 249zM838 328q0 -91 -45 -168.5t-122 -122t-168.5 -44.5t-168.5 44.5t-122 122t-45 168.5t45 168.5t122 122t168.5 44.5t168.5 -44.5t122 -122t45 -168.5zM558 775h84v56h-251v-56h84v-56h27h56v56zM711 529q-9 10 -19 0l-139 -139q-6 -6 -3 -14q-8 8 -20 8h-55
q-12 0 -20 -8t-8 -20v-56q0 -11 8 -19.5t20 -8.5h55q12 0 20 8.5t8 19.5v56q0 7 -3 13l18 -18q10 -10 20 0l138 138q10 10 0 20zM530 314q0 -6 -4 -10t-10 -4h-28q-5 0 -9 4t-4 10v28q0 6 4 10t9 4h28q6 0 10 -4t4 -10v-28z" />
    <glyph glyph-name="uniE610" unicode="&#xe610;" 
d="M85 -63h854v25v137q0 12 -11 23t-22 16l-12 5l-259 134q47 37 90 104.5t43 106.5v128q0 28 -20.5 64t-54.5 69t-82.5 56.5t-98.5 25.5q-44 -1 -88.5 -24t-76 -56.5t-51 -70t-19.5 -64.5v-128q0 -36 44 -104.5t91 -106.5l-283 -134q-5 -2 -12.5 -6t-19.5 -15.5t-12 -22.5
v-152v-2v-8zM128 81q4 4 15.5 14.5t18.5 13.5l247 115q35 13 39 49q3 23 -8 32q-39 31 -79.5 90.5t-40.5 92.5v128q0 20 15 48.5t40 56.5t62 48t75 21q39 -2 79 -22t69 -47.5t47 -56.5t18 -48v-128q0 -34 -39 -93t-79 -90q-12 -10 -10 -32q1 -8 16.5 -26.5t24.5 -22.5
l212 -110l1 -1q6 -2 24 -15.5t21 -16.5v-102h-768v102z" />
    <glyph glyph-name="uniE611" unicode="&#xe611;" 
d="M900 404q0 86 -36 163l33 32q24 24 24 58.5t-24 58.5l-79 79q-25 24 -59.5 24t-58.5 -24l-36 -35q-73 31 -154 31q-84 0 -159 -33l-38 37q-24 24 -59 24t-59 -24l-79 -79q-24 -24 -24 -58.5t24 -58.5l37 -37q-34 -75 -34 -158q0 -85 35 -160t97 -129l-115 -114l39 -39
l120 119q98 -64 215 -64t215 64l120 -119l39 39l-115 114q62 54 96.5 129.5t34.5 159.5zM739 756q8 8 19.5 8t19.5 -8l79 -79q8 -8 8 -19.5t-8 -19.5l-21 -21q-47 71 -120 116zM156 677l78 79q9 8 20.5 8t19.5 -8l25 -26q-72 -46 -118 -117l-25 25q-9 8 -9 19.5t9 19.5z
M510 72q-91 0 -168 44.5t-122 121t-45 166.5t45 166.5t122 121t168 44.5t168 -44.5t122 -121t45 -166.5t-45 -166.5t-122 -121t-168 -44.5zM538 625h-56v-166v-55h56h167v55h-167v166z" />
    <glyph glyph-name="uniE612" unicode="&#xe612;" 
d="M529 807l186 -153v77h134v-184l110 -117l-29 -32l-148 161l25 11l1 120h-52v-108l-39 16l-190 153l-405 -353l-26 32zM205 -5h226l1 230l190 1l1 -231h226v355h-41v-315h-145v232h-273v-232h-144v315h-41v-355z" />
    <glyph glyph-name="uniE613" unicode="&#xe613;" 
d="M971 715l-437 -178l-438 178l437 169zM60 641l436 -182v-493q-52 23 -108 48q-48 21 -108.5 47t-121.5 52q-22 10 -40 26.5t-31 36t-20 41.5t-7 43v381zM998 641v-379q0 -26 -10 -50.5t-25.5 -46t-34.5 -38t-37 -25.5q-53 -22 -111 -46t-107 -44q-57 -24 -112 -46v493z
" />
    <glyph glyph-name="uniE614" unicode="&#xe614;" 
d="M310 783q21 -13 28 -24q10 -6 24 -27q1 -3 6 -10t7 -10q7 -7 14 -21q2 -3 7 -11.5t7 -12.5h228q1 2 6.5 10t7.5 14q7 14 13.5 21t10.5 13q13 21 20 28q6 8 31 27q14 7 17 14q7 13 7 17q0 10 -4 17q-4 9 -13 13q-7 4 -17 4q-2 0 -7 -2t-7 -2q-7 0 -14 -6q-3 -4 -16.5 -4
t-17.5 4q-1 1 -6.5 4.5t-6.5 5.5q-7 7 -14 10q-3 3 -17 10q-21 11 -34 4q-4 -1 -28 -17q-13 -14 -17 -14q-1 0 -3 -1.5t-3 -1.5l-14 6q-2 2 -5.5 4t-4.5 3l-11 10q-3 4 -23 11q-14 4 -31 -7q-14 -7 -27 -21q-11 -10 -24 -10h-21q-2 2 -8 4l-9 3q-7 3 -20.5 3t-16.5 -3
q-16 -10 -11 -31q4 -10 17 -24zM901 265q-12 64 -27 95q-18 36 -48 72q-8 9 -17.5 18.5t-20.5 20t-17 15.5q-41 35 -54 52l-15 14l-15 16l-11 11q-8 7 -19 19.5t-16 17.5h-245q-3 -6 -8.5 -13t-12.5 -15t-10 -13q-10 -14 -38 -41q-6 -6 -24 -22.5t-27 -25.5
q-41 -41 -61.5 -64.5t-47.5 -78.5q-18 -37 -24 -92q-6 -57 4 -103q13 -58 37 -95q29 -52 75 -89q52 -41 113 -65q62 -24 153 -24q84 0 151 21q63 19 112 58q53 41 75 85q25 37 38 103q6 86 0 123zM624 128q31 0 31 -24q0 -14 -7 -17q-3 -3 -17 -3h-75v-21q0 -7 -7 -20
q-11 -12 -20 -7q-14 0 -21 7q-10 5 -10 20v21h-78q-11 0 -17.5 6.5t-6.5 13.5q0 4 7 17q6 7 17 7h75v38h-75q-11 0 -17.5 6.5t-6.5 13.5q0 3 7 17q6 7 17 7h75v24l-38 37q-3 4 -8.5 10t-10 10.5t-8.5 7.5l-14 17q-3 3 -10 17q-4 8 3 24q11 11 24 7q16 -6 24 -14q1 -1 5.5 -7
t8.5 -10l24 -24l30 -31q14 10 35 31q5 3 13.5 11.5t13.5 12.5q4 3 7.5 6.5t6 6.5t3.5 4q10 10 20.5 10t20.5 -10q16 -16 -10 -38l-21 -20l-27 -27l-34 -35v-17h71q11 0 24 -6q7 -4 7 -18q0 -10 -7 -16.5t-20 -6.5h-72v-38h68z" />
    <glyph glyph-name="uniE615" unicode="&#xe615;" horiz-adv-x="1033" 
d="M1017 624q-10 13 -26 13h-765l-47 169q-7 23 -31 24l-114 3q-14 1 -24 -8.5t-10 -23t9 -23.5t23 -10l89 -3l178 -628v-1q1 -5 4 -9l1 -1q2 -4 6 -7h1q4 -3 9 -5q5 -1 10 -1v0h562q11 0 20.5 7t11.5 18l99 459q4 15 -6 27v0zM950 571l-25 -115h-639l-29 115h693v0z
M897 326h-578l-17 65h609l-14 -65v0zM356 178l-20 82h547l-18 -82h-509v0zM454.5 80q-29.5 0 -50 -21.5t-20.5 -51.5t20.5 -51t50 -21t50.5 21t21 51t-21 51.5t-50.5 21.5zM788 80q-30 0 -50.5 -21.5t-20.5 -51.5t20.5 -51t50 -21t50.5 21t21 51t-21 51.5t-50 21.5z" />
    <glyph glyph-name="uniE616" unicode="&#xe616;" 
d="M892 530q-43 79 -114.5 134t-158.5 77q22 41 63 66t90 25q72 0 123 -51.5t51 -123.5q0 -75 -54 -127zM897 324.5q0 -105.5 -51.5 -195t-141 -141.5t-195 -52t-195 52t-141.5 141.5t-52 195t52 195t141.5 141.5t195 52t195 -52t141 -141.5t51.5 -195zM509 636
q-129 0 -220 -91.5t-91 -220.5t91 -220t220 -91t220 91t91 220t-91 220.5t-220 91.5zM754 286h-245q-13 0 -22 9t-9 22v189q0 13 9 22.5t22 9.5t22.5 -9.5t9.5 -22.5v-157h213q13 0 22.5 -9.5t9.5 -22.5t-9.5 -22t-22.5 -9zM133 530q-54 52 -54 127q0 72 51 123.5t124 51.5
q48 0 89 -25t64 -66q-88 -22 -159.5 -77t-114.5 -134zM166 68l3 -3q23 -32 52 -60l-60 -61q-6 -6 -15 -6t-15 6l-30 30q-6 6 -6 15t6 15zM856 65l4 3l64 -64q6 -6 6 -15t-6 -15l-30 -30q-6 -6 -14.5 -6t-14.5 6l-61 61q29 28 52 60z" />
    <glyph glyph-name="uniE617" unicode="&#xe617;" 
d="M513 496q-23 0 -39.5 -16t-16.5 -39t16.5 -39.5t39.5 -16.5t39.5 16.5t16.5 39.5t-16.5 39t-39.5 16zM290 496q-23 0 -39.5 -16t-16.5 -39t16.5 -39.5t39.5 -16.5t39.5 16.5t16.5 39.5t-16.5 39t-39.5 16zM513 831q-121 0 -224 -52.5t-162.5 -142t-59.5 -195.5
q0 -91 44.5 -170.5t122.5 -134.5v-197l196 119q42 -7 83 -7q121 0 223.5 52t162.5 142t60 196t-60 195.5t-162.5 142t-223.5 52.5zM513 106q-46 0 -94 11l-132 -79l2 129q-77 46 -121.5 118t-44.5 156q0 91 52 168t142 121.5t196 44.5t196 -44.5t142 -121.5t52 -168
t-52 -168t-142 -122t-196 -45zM736 496q-23 0 -39.5 -16t-16.5 -39t16.5 -39.5t39.5 -16.5t39.5 16.5t16.5 39.5t-16.5 39t-39.5 16z" />
    <glyph glyph-name="uniE618" unicode="&#xe618;" 
d="M874 749q35 0 58 -11.5t36.5 -29t18.5 -38t5 -38.5q0 -8 -0.5 -12.5t-0.5 -8.5v-7h-78v-612q0 -24 -9 -45.5t-27 -37.5t-43 -26t-58 -10h-523q-31 0 -58 9t-46.5 26t-30.5 41t-11 54v601h-73q-1 1 -1 6q-1 6 -1 36q0 15 7 34t21 34.5t36.5 26t52.5 10.5h105v71
q0 31 21 52.5t52 21.5h367q41 0 57 -21.5t16 -52.5v-72q24 -1 53 -1h54zM327 749h367v73h-367v-73zM290 10q38 0 38 48v542h-73v-542q0 -24 7.5 -36t27.5 -12zM512 12q20 0 27 11t7 35v542h-73v-542q0 -46 39 -46zM733 14q21 0 28 11t7 36v539h-74v-539q0 -47 39 -47z" />
    <glyph glyph-name="uniE619" unicode="&#xe619;" 
d="M588 165q-13 9 -35 9h-232q-53 0 -91 34.5t-38 83.5v202h-4q-39 0 -65.5 -26.5t-26.5 -64.5v-258q0 -36 27.5 -58.5t67.5 -22.5h33v-96l106 90q8 6 27 6h179q37 0 67.5 17.5t36.5 46.5zM802 800h-435q-50 0 -80.5 -34.5t-30.5 -85.5v-139v-197q0 -50 36.5 -85t88.5 -35
h203q24 0 35 -8l149 -120v128h34q52 0 89 35t37 85v336q0 50 -37 85t-89 35z" />
    <glyph glyph-name="uniE61A" unicode="&#xe61a;" 
d="M512 -128q-172 0 -294 122t-122 294q0 126 69.5 230.5t186.5 153.5l24 -59q-98 -41 -157 -129.5t-59 -195.5q0 -146 103 -249t249 -103q136 0 238 93.5t113 229.5l64 -6q-9 -105 -67 -192.5t-150 -138t-198 -50.5zM862 317q-8 99 -65.5 178.5t-149.5 117.5l25 59
q108 -45 176.5 -139t77.5 -210zM608 608h-64v160h96v64h-256v-64h96v-160h-64v96h-96v192h384v-192h-96v-96zM905 759l46 -46l-96 -96l-46 46zM905 804l91 -91l-45 -45l-91 91zM768 256h-288v288h64v-224h224v-64z" />
    <glyph glyph-name="uniE61B" unicode="&#xe61b;" 
d="M128 307l160 186l205 -77q15 -6 25.5 -7t15 1t4.5 6l358 314v-58q0 -14 9 -23t23 -9t23 9t9 23v128q0 14 -9 23t-23 9h-128q-14 0 -23 -9t-9 -23t9 -23t23 -9h45l-333 -282q-173 64 -205 77q-2 1 -7 2.5t-6.5 2t-5.5 1.5t-6 1h-4q-4 0 -6 -0.5t-4.5 -2t-5.5 -4.5
l-179 -205q-9 -9 -9 -25t9 -26q10 -5 22.5 -5t22.5 5zM192 -6q0 -29 -17.5 -46.5t-46.5 -17.5t-46.5 17.5t-17.5 46.5v192q0 28 17.5 46t46.5 18t46.5 -18t17.5 -46v-192zM384 -6q0 -29 -17.5 -46.5t-46.5 -17.5t-46.5 17.5t-17.5 46.5v320q0 28 17.5 46t46.5 18t46.5 -18
t17.5 -46v-320zM576 -6q0 -29 -17.5 -46.5t-46.5 -17.5t-46.5 17.5t-17.5 46.5v256q0 28 17.5 46t46.5 18t46.5 -18t17.5 -46v-256zM768 0q0 -29 -17.5 -46.5t-46.5 -17.5t-46.5 17.5t-17.5 46.5v384q0 29 17.5 46.5t46.5 17.5t46.5 -17.5t17.5 -46.5v-384zM960 -6
q0 -29 -17.5 -46.5t-46.5 -17.5t-46.5 17.5t-17.5 46.5v512q0 28 17.5 46t46.5 18t46.5 -18t17.5 -46v-512z" />
    <glyph glyph-name="uniE61C" unicode="&#xe61c;" 
d="M956 517q0 74 -43.5 137t-118 99.5t-162.5 36.5q-98 0 -179 -45.5t-118 -119.5q25 3 49 3q36 56 102.5 89t145.5 33q118 0 201 -68.5t83 -164.5q0 -97 -85 -165q-21 -17 -14 -43l17 -59l-83 32q-3 -17 -9 -40l153 -59l-39 137q47 38 73.5 89t26.5 108zM390 588
q-88 0 -163 -36.5t-118 -99.5t-43 -137q0 -57 26.5 -108t73.5 -89l-39 -137l181 70q41 -9 82 -9q88 0 162.5 36.5t117.5 99.5t43 137t-43 137t-117.5 99.5t-162.5 36.5zM390 82q-36 0 -73 8q-5 1 -9 1q-7 0 -15 -2l-105 -41l17 59q7 26 -14 42q-85 69 -85 166q0 96 83 164.5
t200.5 68.5t200.5 -68.5t83 -164.5t-83 -164.5t-200 -68.5z" />
    <glyph glyph-name="uniE61D" unicode="&#xe61d;" 
d="M296 285l64 -65l46 201l-22 11zM439 466.5q0 11.5 -8 19.5t-19.5 8t-19.5 -8t-8 -19.5t8 -19.5t19.5 -8t19.5 8t8 19.5zM366 466q0 10 4 19q-102 37 -109 23q-5 -9 -1 -32t1 -32q-3 -8 -4 -14t0.5 -12t9 -7t20.5 1q28 7 90 24q-11 13 -11 30zM841 713h-658q-23 0 -39 -16
t-16 -39v-548q0 -23 16 -39t39 -16h658q23 0 39 16t16 39v548q0 23 -16 39t-39 16zM859 475h-274v-36h274v-329q0 -8 -5 -13t-13 -5h-420v252l-37 -95v-157h-201q-8 0 -13 5t-5 13v329h73v36h-73v183q0 8 5 13t13 5h201v-164h37v164h420q8 0 13 -5t5 -13v-183zM562 507
q-7 15 -109 -23q4 -8 4 -18q0 -17 -11 -30q63 -17 90 -24q13 -2 20.5 -1t9 7t0.5 12t-4 14q-3 9 1 32t-1 31zM417 422l49 -202l66 65l-92 148z" />
    <glyph glyph-name="uniE61E" unicode="&#xe61e;" 
d="M413 581q-109 0 -186.5 -71t-77.5 -171q0 -92 67 -161q6 -6 4 -15l-18 -79q-2 -10 6.5 -17t18.5 -2l91 44q6 3 13 1q40 -13 82 -13q109 0 186.5 71t77.5 171t-77.5 171t-186.5 71zM281.5 385q17.5 0 30 -11.5t12.5 -27.5t-12.5 -27t-30 -11t-29.5 11t-12 27t12 27.5
t29.5 11.5zM406 308q-17 0 -29.5 11t-12.5 27t12.5 27.5t29.5 11.5t29.5 -11.5t12.5 -27.5t-12.5 -27t-29.5 -11zM527.5 308q-17.5 0 -29.5 11t-12 27t12 27.5t29.5 11.5t30 -11.5t12.5 -27.5t-12.5 -27t-30 -11zM875 418q0 81 -45 149t-123 108t-169 40q-92 0 -169 -40
t-122 -107q75 46 166 46q124 0 212 -80.5t88 -194.5q0 -63 -29.5 -118.5t-80.5 -93.5q2 0 16 3h-1l143 -75q10 -5 19 1t7 16l-14 124q-1 8 5 14q97 87 97 208z" />
    <glyph glyph-name="uniE61F" unicode="&#xe61f;" 
d="M455 416h-337q-12 0 -20.5 8.5t-8.5 20.5v336q0 12 8.5 20.5t20.5 8.5h337q12 0 20.5 -8.5t8.5 -20.5v-336q0 -12 -8.5 -20.5t-20.5 -8.5zM935 609v8q0 79 -56.5 135.5t-136.5 56.5h-7q-80 0 -136.5 -56.5t-56.5 -135.5v-8q0 -79 56.5 -135.5t136.5 -56.5h7
q80 0 136.5 56.5t56.5 135.5zM482 -5v334q0 12 -8.5 20.5t-20.5 8.5h-334q-12 0 -20.5 -8.5t-8.5 -20.5v-334q0 -12 8.5 -20.5t20.5 -8.5h334q12 0 20.5 8.5t8.5 20.5zM935 -5v334q0 12 -8.5 20.5t-20.5 8.5h-335q-12 0 -20.5 -8.5t-8.5 -20.5v-334q0 -12 8.5 -20.5
t20.5 -8.5h335q12 0 20.5 8.5t8.5 20.5z" />
    <glyph glyph-name="uniE620" unicode="&#xe620;" 
d="M646 636q-59 0 -134 -90q-75 90 -134 90q-72 0 -122.5 -49t-50.5 -118q0 -25 9 -50.5t17 -39t24 -34.5q29 -40 90.5 -93.5t92.5 -76t52 -36.5q10 -7 22 -7t22 7q21 14 52 36.5t92.5 76t90.5 93.5q16 21 24 34.5t17 39t9 50.5q0 69 -50.5 118t-122.5 49z" />
    <glyph glyph-name="uniE621" unicode="&#xe621;" 
d="M998 277q0 58 -69 98.5t-167 40.5q-14 0 -27 -1v227v18q0 57 -65.5 96.5t-162.5 39.5t-164 -39.5t-67 -96.5q0 -8 2 -18v-62h-23q-97 0 -163 -39.5t-66 -96.5v-18v-318h2q3 -55 68.5 -92t158.5 -37q95 0 163 37.5t72 91.5h1v13q3 0 7.5 -0.5t8.5 -0.5q12 0 26 1v-4h1v-8
q0 -57 67.5 -98.5t163.5 -41.5q98 0 165 39t67 96v9h1v146q1 1 0.5 9t-0.5 9zM765 372q82 0 138 -30t56 -65.5t-56 -65t-138 -29.5t-137.5 29.5t-55.5 65t55.5 65.5t137.5 30zM961 199v-24q-8 -36 -65.5 -62t-130.5 -26t-130 26t-65 62v24q31 -28 82.5 -44.5t112.5 -16.5
t112.5 16.5t83.5 44.5zM507 392q-3 0 -16 1v33q1 5 2 11q11 -1 14 -1q124 0 190 62v-19q-8 -36 -63 -61.5t-127 -25.5zM700 411q-9 -2 -10 -2q8 7 10 8v-6zM507 753q81 0 134.5 -29t53.5 -64.5t-53.5 -64.5t-134.5 -29t-136 29.5t-55 64.5t55 64t136 29zM314 583q3 -2 12 -9
q-1 0 -12 2v7zM255 537q81 0 137.5 -29.5t56.5 -64t-56.5 -64t-137.5 -29.5q-80 0 -135 29.5t-55 64.5t55 64t135 29zM63 367q31 -28 81.5 -44t110.5 -16q61 0 113 16t83 44v-23q-8 -36 -65.5 -61.5t-130.5 -25.5q-72 0 -128 25.5t-64 60.5v24zM63 282q30 -29 81 -45.5
t111 -16.5q61 0 113.5 16.5t82.5 45.5v-19q-8 -35 -65.5 -61t-130.5 -26q-72 0 -128 26t-64 61v19zM63 201q30 -28 81 -44.5t111 -16.5q61 0 113.5 16.5t82.5 44.5v-18q-8 -36 -65.5 -61.5t-130.5 -25.5q-72 0 -128 25.5t-64 61.5v18zM255 16q-75 0 -132 27.5t-61 64.5h1v13
q30 -28 81 -44.5t111 -16.5q61 0 113.5 16.5t82.5 44.5v-13h1q-4 -37 -62.5 -64.5t-134.5 -27.5zM488 474q-9 24 -51 55q35 -6 70 -6q122 0 190 60v-23q-8 -36 -63 -61.5t-127 -25.5q-6 0 -19 1zM533 158q-15 -1 -26 -1h-16v39q12 -1 16 -1q11 0 26 1v-38zM533 233
q-15 -1 -26 -1q-3 0 -16 1v43h16h24q0 -7 2 -15v-28v0zM538 314q-16 -2 -31 -2q-4 0 -16 1v44q13 -1 16 -1q35 0 71 6q-28 -21 -40 -48zM765 6q-78 0 -137 29t-60 68l1 10q31 -29 83 -46t113.5 -17t113 17t82.5 46h1v-9q0 -39 -59 -68.5t-138 -29.5zM237 415q-2 3 -4 12h-27
q-1 -20 17 -28q10 -4 30 -6v-14h10v14q15 1 27 6q19 8 19 26q0 14 -14 21q-8 5 -32 10v27q10 0 13 -5q3 -3 3 -9h27q0 17 -17 24q-10 5 -26 6v10h-10v-10q-11 0 -16 -2q-9 -2 -16 -7q-6 -4 -9 -9t-3 -12q0 -10 8 -17t27 -11l9 -2v-30q-12 1 -16 6zM263 437q8 -2 12 -4
q5 -4 5 -10q0 -8 -6 -11q-3 -2 -11 -3v28zM242 462q-7 3 -7 9t4.5 9t13.5 3v-25q-8 2 -11 4zM744 256q-3 3 -4 12h-28q0 -20 18 -28q9 -4 30 -6v-14h9v14q16 1 28 6q19 8 19 26q0 13 -14 21q-8 4 -33 10v27q10 0 14 -5q2 -3 3 -10h27q-1 17 -18 25q-9 5 -26 6v9h-9v-9
q-11 -1 -16 -2q-9 -2 -16 -7q-6 -4 -9 -9.5t-3 -11.5q0 -10 8 -17t27 -11l9 -2v-30q-12 1 -16 6zM769 278q9 -3 12 -5q6 -3 6 -9q0 -8 -6 -12q-4 -1 -12 -2v28v0zM748 303q-6 3 -6 9t4.5 9t13.5 3v-25q-8 2 -12 4zM487 629q-2 3 -4 12h-27q-1 -20 17 -28q10 -4 30 -6v-14h10
v14q15 1 27 6q19 8 19 26q0 13 -14 21q-8 4 -32 10v27q10 0 13 -5q3 -3 3 -10h27q0 18 -17 25q-10 5 -26 6v9h-10v-9q-11 -1 -16 -2q-9 -2 -16 -7q-6 -4 -9 -9t-3 -12q0 -10 8 -17t27 -11l9 -2v-30q-12 1 -16 6zM513 651q8 -2 12 -5q6 -3 6 -9q0 -8 -7 -11q-3 -2 -11 -3v28
v0zM492 676q-7 3 -7 9t4.5 9t13.5 3v-25q-8 2 -11 4zM492 676z" />
    <glyph glyph-name="uniE622" unicode="&#xe622;" 
d="M894 509h-112v228q0 42 -30 72t-72 30h-533q-42 0 -72 -30t-30 -72v-360q0 -42 30 -72t72 -30h8l-1 -152l219 152h12v-137q0 -35 25 -60t60 -25h243l180 -124l-1 124h2q35 0 60 25t25 60v286q0 35 -25 60t-60 25zM362 311l-172 -119l1 119h-44q-27 0 -46.5 19.5
t-19.5 46.5v360q0 27 19.5 46.5t46.5 19.5h533q27 0 46.5 -19.5t19.5 -46.5v-228v-132q0 -27 -19.5 -46.5t-46.5 -19.5h-295h-23zM943 138q0 -20 -14.5 -34.5t-34.5 -14.5h-39l1 -91l-132 91h-254q-20 0 -34.5 14.5t-14.5 34.5v137h259q42 0 72 30t30 72v96h112
q20 0 34.5 -14t14.5 -35v-286zM313 565.5q0 -17.5 -12.5 -30t-30 -12.5t-29.5 12.5t-12 30t12 30t29.5 12.5t30 -12.5t12.5 -30zM456 565.5q0 -17.5 -12.5 -30t-30 -12.5t-29.5 12.5t-12 30t12 30t29.5 12.5t30 -12.5t12.5 -30zM599 560.5q0 -17.5 -12.5 -29.5t-30 -12
t-30 12t-12.5 29.5t12.5 30t30 12.5t30 -12.5t12.5 -30z" />
    <glyph glyph-name="uniE623" unicode="&#xe623;" 
d="M672 682q71 0 122 -50.5t51 -121.5q0 -74 -54 -125l-278 -280l-284 285q-49 50 -49 120q0 71 51 121.5t122 50.5q53 0 96.5 -29t63.5 -77q19 48 62.5 77t96.5 29zM672 711q-47 0 -89 -20.5t-70 -57.5q-29 37 -71 57.5t-89 20.5q-83 0 -142 -59t-59 -142q0 -81 56 -140
l284 -286l21 -20l20 20l279 281q62 59 62 145q0 83 -59.5 142t-142.5 59z" />
    <glyph glyph-name="uniE624" unicode="&#xe624;" 
d="M110 255l165 192l212 -80q16 -6 27 -7t15.5 1.5t4.5 5.5l370 325v-60q0 -15 9 -24t24 -9t24 9t9 24v133q0 15 -9 24t-24 9h-132q-15 0 -24 -9t-9 -24t9 -24t24 -9h46l-344 -292q-179 66 -212 80q-2 0 -7 2t-6.5 2.5t-6 1.5t-5.5 1h-6q-3 0 -5 -1l-5 -2q-3 -2 -5 -4
l-185 -212q-10 -10 -10 -26.5t10 -26.5q23 -12 46 0zM110 255zM155 -44q0 -15 -11.5 -25.5t-27.5 -10.5h-13q-16 0 -27 10.5t-11 25.5v229q0 15 11 25.5t27 10.5h13q16 0 27.5 -10.5t11.5 -25.5v-229zM559 -44q0 -15 -11.5 -25.5t-27.5 -10.5h-13q-16 0 -27.5 10.5
t-11.5 25.5v289q0 15 11.5 25.5t27.5 10.5h13q16 0 27.5 -10.5t11.5 -25.5v-289zM357 -44q0 -15 -11.5 -25.5t-27.5 -10.5h-13q-16 0 -27.5 10.5t-11.5 25.5v349q0 15 11.5 25.5t27.5 10.5h13q16 0 27.5 -10.5t11.5 -25.5v-349zM761 -44q0 -15 -11.5 -25.5t-27.5 -10.5h-13
q-16 0 -27.5 10.5t-11.5 25.5v409q0 15 11.5 25.5t27.5 10.5h13q16 0 27.5 -10.5t11.5 -25.5v-409zM962 -44q0 -15 -11 -25.5t-27 -10.5h-13q-16 0 -27.5 10.5t-11.5 25.5v470q0 15 11.5 25.5t27.5 10.5h13q16 0 27 -10.5t11 -25.5v-470z" />
    <glyph glyph-name="uniE625" unicode="&#xe625;" 
d="M192 320h192v-320h-192v320zM448 704h192v-704h-192v704zM704 512h192v-512h-192v512z" />
    <glyph glyph-name="uniE626" unicode="&#xe626;" 
d="M692 794q-104 0 -174.5 -31t-70.5 -76v-182q-57 14 -127 14q-106 0 -175.5 -30.5t-69.5 -76.5v-431h6q18 -37 84 -59.5t155 -22.5q107 0 176.5 30t69.5 77v38q57 -14 126 -14q105 0 175.5 30.5t70.5 76.5v550q0 45 -70.5 76t-175.5 31zM454 321q13 3 25 8q24 9 42 19
q5 3 9 6v-61q0 -19 -36 -38q-18 -10 -43 -17q-57 -17 -131 -17q-90 0 -149.5 23.5t-59.5 48.5v61q68 -49 209 -49q74 0 134 16zM454 202q13 3 25 8q7 2 18 7q13 5 27 14l6 4v-86q0 -19 -36 -37q-10 -6 -24 -11q-63 -23 -150 -23q-90 0 -149.5 23t-59.5 48v86q68 -49 209 -49
q75 0 134 16zM111 92q68 -50 209 -50q106 0 177 31q14 7 27 15l6 4v-86v-2q-2 -24 -61 -47t-149 -23t-149.5 23.5t-59.5 48.5v86zM512 386q-10 -8 -23 -14q-6 -3 -14 -6q-10 -4 -24 -9q-57 -16 -131 -16q-90 0 -149.5 23t-59.5 48t59.5 48t149.5 23q73 0 131 -17
q15 -4 25 -8q54 -21 54 -46q0 -12 -18 -26zM483 687q0 25 59.5 48t150 23t150 -23t59.5 -48t-59.5 -48.5t-150 -23.5t-150 23.5t-59.5 48.5zM483 567v62q68 -50 209 -50t210 50v-62q0 -25 -59.5 -48t-150.5 -23q-61 0 -110.5 11.5t-74 28t-24.5 31.5zM483 494v16
q68 -50 209 -50t210 50v-86q0 -25 -59.5 -48.5t-150.5 -23.5q-69 0 -126 16v44q0 51 -83 82zM566 331q57 -14 126 -14q142 0 210 49v-85q0 -25 -59.5 -48.5t-150.5 -23.5q-70 0 -126 16v106zM566 188q57 -15 126 -15q141 0 210 50v-86q0 -25 -59.5 -48t-150.5 -23
q-70 0 -126 16v106z" />
    <glyph glyph-name="uniE627" unicode="&#xe627;" horiz-adv-x="1026" 
d="M686 545l-3 51h6q60 0 102 -61t42 -147.5t-42 -148t-102 -61.5v52q35 0 64 45.5t29 112t-29 112t-64 45.5h-3zM793 663l-3 51h9q62 0 114 -44t82 -120t30 -165.5t-30 -165.5t-82 -120t-114 -44v51q71 0 123 82.5t52 196t-52 196t-123 82.5h-6zM521 8v756
q-32 -18 -99.5 -76.5t-132.5 -122.5l-15 -14h-21h-201v-334h195h26l13 -11zM526 -52q-12 0 -27 11l-252 207h-213q-3 1 -8.5 2.5t-15 11.5t-10.5 25v363l2 8q2 4 10.5 13t21.5 13h219q9 9 24 23.5t56 52t75.5 66.5t69 52.5t48.5 23.5h1h5q8 0 15.5 -2.5t16 -13t8.5 -29.5
v-788q0 -23 -25 -34q-8 -4 -20 -5h-1v0z" />
    <glyph glyph-name="uniE628" unicode="&#xe628;" 
d="M512 888q-103 0 -196.5 -40t-161.5 -108t-108 -161.5t-40 -196.5t40 -196.5t108 -161.5t161.5 -108t196.5 -40t196.5 40t161.5 108t108 161.5t40 196.5t-40 196.5t-108 161.5t-161.5 108t-196.5 40zM515 -74q-94 0 -179.5 36t-147 97.5t-98 146.5t-36.5 178.5t36.5 178.5
t98 146.5t147 98t179.5 36.5t179.5 -36.5t147 -98t98.5 -146.5t37 -178.5t-37 -178.5t-98.5 -146.5t-147 -97.5t-179.5 -36zM515 -74zM285 282h59v-140h-59v140zM285 282zM399 346h54v-204h-54v204zM399 346zM520 399h56v-257h-56v257zM520 399zM640 461h58v-319h-58v319z
M640 461zM246 346l3 3l177 169l61 -47l128 126l-39 45l136 34l-14 -141l-58 34l-161 -154l-53 53l-152 -152zM246 346z" />
    <glyph glyph-name="uniE629" unicode="&#xe629;" 
d="M512 -107q100 0 191 39t156.5 104.5t104.5 156.5t39 191t-39 191t-104.5 156.5t-156.5 104.5t-191 39t-191 -39t-156.5 -104.5t-104.5 -156.5t-39 -191t39 -191t104.5 -156.5t156.5 -104.5t191 -39zM386 345q3 -3 10 -3h367q12 0 12 12q0 4 -4 8l53 189q3 6 0.5 11
t-8.5 5q-2 2 -4 2t-4.5 -1t-3.5 -1h-4h-400q-4 0 -8.5 -3.5t-4.5 -8.5q0 -12 13 -12h396l-21 -81q0 4 -8 4h-355q-12 0 -12 -12q0 -7 3 -11t9 -1h355h4l-20 -76h-351q-11 0 -17 -12zM512 -128q-139 0 -257 68.5t-186.5 186.5t-68.5 257t68.5 257t186.5 186.5t257 68.5
t257 -68.5t186.5 -186.5t68.5 -257t-68.5 -257t-186.5 -186.5t-257 -68.5zM448.5 116q15.5 0 26 10.5t10.5 25.5t-10.5 26t-26 11t-26 -11t-10.5 -26t10.5 -25.5t26 -10.5zM510 152q0 -27 -18.5 -45.5t-43 -18.5t-43 18.5t-18.5 45.5t18 44t43.5 17t43.5 -17t18 -44z
M714 116q15 0 26 10.5t11 25.5t-11 26t-26 11t-26 -11t-11 -26t11 -25.5t26 -10.5zM775 152q0 -27 -18 -45.5t-43 -18.5t-43 18.5t-18 45.5t18 44t43 17t43 -17t18 -44zM386 345q-3 3 -3 9l-73 269q-4 8 -17 8q0 3 -2.5 5.5t-5.5 2.5h-102q-12 0 -12 -12t12 -12h98h4
l98 -358v-4q0 -12 13 -12h367q12 0 12 12t-12 12h-355z" />
    <glyph glyph-name="uniE62A" unicode="&#xe62a;" 
d="M565 382v-338q0 -25 -24 -32q-2 0 -5 -1.5t-4 -1.5q-13 -3 -25 6q-11 8 -39 30.5t-41 33.5q-6 5 -17.5 15t-16.5 14q-26 22 -51 41q-10 9 -47 39q-6 5 -9 7q-4 3 -15 3h-165q-9 0 -13 1q-13 5 -19 18q-4 9 -4 27v150v145q0 16 17 28q7 5 21 5h164h5q10 -2 18 6
q27 27 57 54q27 25 53 47q31 28 48 40q21 16 54 36q14 10 32 6t23 -23q3 -11 3 -37v-319zM523 386v308v8v7q-1 7 -7 4q-4 -3 -6 -4q-40 -30 -48 -37q-17 -14 -45 -38q-23 -21 -44 -40q-29 -27 -62 -59q-5 -4 -12 -4h-177q-6 0 -7.5 -1.5t-1.5 -8.5v-273q0 -6 1.5 -7.5
t7.5 -1.5h177q6 0 10 -2q4 -3 12 -10q6 -5 19 -16.5t20 -17.5t21 -17.5t20 -16.5q9 -7 26 -21.5t24 -20.5q13 -12 45 -38q14 -12 20 -17q3 -2 5 -1q1 1 2 4v3v3v315zM955 385v-40q-1 -7 -7 -40q-2 -14 -5 -24q-2 -5 -8 -24q-3 -10 -5 -14q-13 -29 -17 -37q-11 -20 -23 -35
q-18 -24 -42 -41q-20 -14 -38 -20q-24 -8 -39 -9q-5 0 -6.5 1.5t-1.5 6.5v13v13q0 5 2 7t7 2q20 1 45 16q23 14 41 39q6 8 20 33q8 12 12 22q4 12 10 29q4 14 7 29q2 8 3 19q4 45 4 51q-1 48 -4 60q-2 7 -5 23t-6 23q-1 7 -11 30q-5 12 -10 22q-6 11 -11 18q-12 18 -20 27.5
t-19 16.5q-14 10 -27 17q-6 3 -20 6q-3 1 -9.5 2t-10 1.5t-3.5 4.5q0 2 -1 31q0 3 1 4.5t4 0.5q4 0 11 -0.5t13 -1t11 -2.5q3 -1 10 -3t10 -4q23 -12 37 -23q26 -18 45 -48q13 -21 20 -33q4 -7 11 -26q8 -21 12 -33q1 -4 5 -24t5 -24q0 -7 5 -62h-2zM668 229v17q0 4 4 5
q14 1 31 15q16 14 27 38q13 28 15 51q1 3 2 10.5t1 11.5q1 19 0 28l-6 33q-2 7 -7 22q-1 6 -4 11q-15 26 -26 36q-18 16 -33 17q-7 1 -7 9q0 5 -0.5 14.5t-0.5 13.5q-1 4 0.5 5t5.5 1q4 -1 7 -1q10 0 28 -8q24 -10 44 -37q6 -8 17 -27q5 -11 11 -26q3 -8 6 -18q7 -32 6 -52
q0 -1 0.5 -3t0.5 -3q1 -6 1 -7q-2 -26 -4 -34q-2 -12 -6 -32q-3 -11 -7 -21q-5 -13 -10 -20q-13 -22 -21 -31q-7 -9 -23 -21q-11 -8 -20 -12q-6 -2 -28 -6q-2 0 -3 1t-1 4v16z" />
    <glyph glyph-name="uniE62B" unicode="&#xe62b;" 
d="M450 386l40 375q-100 0 -187 -52t-134 -144q-33 -66 -38.5 -138.5t15.5 -137.5t67.5 -121.5t112 -90t138 -38.5t138 16t121.5 67.5t90 111.5q54 106 34 225zM713 778q-77 40 -165 40h-1l-41 -375l398 73q-14 83 -63.5 152.5t-127.5 109.5zM587 765q4 -1 11.5 -2t29.5 -7
t43 -14.5t48 -25.5t49.5 -38.5t43.5 -54.5t33 -73l-291 -58z" />
    <glyph glyph-name="uniE62C" unicode="&#xe62c;" 
d="M256 448h-128q-27 0 -45.5 -18.5t-18.5 -45.5v-320q0 -27 18.5 -45.5t45.5 -18.5h128q27 0 45.5 18.5t18.5 45.5v320q0 27 -18.5 45.5t-45.5 18.5zM256 64h-128v320h128v-320zM896 576h-128q-27 0 -45.5 -18.5t-18.5 -45.5v-448q0 -27 18.5 -45.5t45.5 -18.5h128
q27 0 45.5 18.5t18.5 45.5v448q0 27 -18.5 45.5t-45.5 18.5zM896 64h-128v448h128v-448zM576 832h-128q-27 0 -45.5 -18.5t-18.5 -45.5v-704q0 -27 18.5 -45.5t45.5 -18.5h128q27 0 45.5 18.5t18.5 45.5v704q0 27 -18.5 45.5t-45.5 18.5zM576 64h-128v704h128v-704z" />
    <glyph glyph-name="uniE62D" unicode="&#xe62d;" 
d="M942 823q-1 -11 -3 -29t-6 -66.5t-4 -89.5t7 -83.5t22 -62.5q-5 -1 -12.5 -4t-34 -18t-55.5 -36.5t-75 -64t-94 -96.5t-111 -138t-127 -184q-1 -2 -9 8t-24.5 30t-39 45.5t-55.5 56.5t-70 61t-86.5 61.5t-101.5 55.5q-3 1 118.5 75t130.5 78l122 -237q0 7 46 98
q152 299 340 457q61 51 122 83z" />
    <glyph glyph-name="uniE62E" unicode="&#xe62e;" 
d="M511.5 830q-90.5 0 -173.5 -35.5t-142.5 -95t-95 -142.5t-35.5 -174t35.5 -173.5t95 -142.5t142.5 -95t173.5 -35t173.5 35t142.5 95t95 142.5t35.5 173.5t-35.5 174t-95 142.5t-142.5 95t-173.5 35.5zM700 230l-34 -34l-154 154l-154 -154l-34 34l154 154l-154 154
l34 34l154 -154l154 154l34 -34l-154 -154zM512 -64q-91 0 -174 35q-81 34 -142.5 96t-95.5 142q-35 83 -35 174t35 174q34 81 95.5 142.5t142.5 95.5q83 35 174 35t174 -35q80 -34 142 -95.5t96 -142.5q35 -83 35 -174t-35 -174q-34 -80 -96 -142t-142 -96
q-83 -35 -174 -35zM511.5 829q-90.5 0 -173 -35t-142.5 -95t-95 -142.5t-35 -173t35 -173t95 -142.5t142.5 -95.5t173 -35.5t173 35.5t142.5 95.5t95.5 142.5t35.5 173t-35.5 173t-95.5 142.5t-142.5 95t-173 35zM666 195l-154 154l-154 -154l-35 35l154 154l-154 154l35 35
l154 -154l154 154l35 -35l-154 -154l154 -154zM325 230l33 -33l154 154l154 -154l33 33l-154 154l154 154l-33 33l-154 -154l-154 154l-33 -33l154 -154z" />
    <glyph glyph-name="uniE62F" unicode="&#xe62f;" 
d="M941 328l-421 420l-420 -420q-7 -7 -7 -16t6.5 -15.5t15.5 -6.5t16 6l389 389l390 -389q6 -6 15.5 -6t16 6.5t6.5 15.5t-7 16zM821 290q-9 0 -15.5 -6.5t-6.5 -16.5v-128q0 -46 -33 -78.5t-79 -32.5h-334q-46 0 -78.5 32.5t-32.5 78.5v128q0 10 -6.5 16.5t-15.5 6.5
t-15.5 -6.5t-6.5 -16.5v-128q0 -64 45.5 -109.5t109.5 -45.5h334q65 0 110.5 45.5t45.5 109.5v128q0 10 -6.5 16.5t-15.5 6.5z" />
    <glyph glyph-name="uniE630" unicode="&#xe630;" 
d="M738 753h-439q-45 0 -82.5 -47t-55.5 -106t-18 -107q0 -40 32.5 -75t77.5 -35q55 0 89 44q33 -44 88 -44t88 44q34 -44 89 -44t88 44q33 -44 88 -44q52 0 81.5 29.5t29.5 80.5q0 46 -20 105.5t-57.5 107t-78.5 47.5zM695 382q-33 -44 -88 -44t-89 44q-33 -44 -88 -44
t-88 44q-34 -44 -89 -44q-30 0 -57 19v-169q0 -64 45.5 -110t109.5 -46h334q65 0 110.5 46t45.5 110v164q-26 -14 -58 -14q-55 0 -88 44z" />
    <glyph glyph-name="uniE631" unicode="&#xe631;" 
d="M511 896q-104 0 -198.5 -40.5t-163 -109t-109 -163t-40.5 -198.5t40.5 -198.5t109 -163t163 -109t198.5 -40.5t198.5 40.5t163 109t109 163t40.5 198.5t-40.5 198.5t-109 163t-163 109t-198.5 40.5zM511 -2q-105 0 -194.5 51.5t-141 141t-51.5 194.5t51.5 194.5t141 141
t194.5 51.5t194.5 -51.5t141 -141t51.5 -194.5t-51.5 -194.5t-141 -141t-194.5 -51.5zM236 432h550v-97h-550v97z" />
    <glyph glyph-name="uniE632" unicode="&#xe632;" 
d="M917 666l-174 195q-151 -231 -298 -466l-216 256l-122 -179q138 -81 273 -181q-216 -351 -212 -384q12 15 33.5 44t95 116t153.5 172q209 -161 348 -307l3 -3q0 32 -285 379q195 197 401 358z" />
    <glyph glyph-name="uniE633" unicode="&#xe633;" 
d="M512 850q-95 0 -181.5 -37t-149 -99.5t-99.5 -149t-37 -181.5t37 -181.5t99.5 -149t149 -99.5t181.5 -37t181.5 37t149 99.5t99.5 149t37 181.5t-37 181.5t-99.5 149t-149 99.5t-181.5 37zM449 62q-66 83 -138.5 143.5t-127.5 81.5l172 107l83 -166q3 7 8.5 19.5
t23.5 49.5t38.5 72.5t52 83t64.5 87t76 77t86 60.5q-1 -17 -5 -56.5t-5 -61t3.5 -54.5t17.5 -63q-44 -10 -117 -81t-136.5 -154.5t-95.5 -144.5z" />
    <glyph glyph-name="uniE634" unicode="&#xe634;" 
d="M811 590q-20 30 -46 56t-57 46q-3 3 -10 7q-86 52 -187 52h-8t-16 -1q-72 -4 -137 -37q-7 -3 -14 -7q-44 -24 -79 -59.5t-60 -79.5l-8 -16q-31 -64 -36 -135q-1 -7 -1 -15q-2 -106 52 -196q4 -7 7 -10q20 -31 46 -57t56 -46q4 -3 11 -7q90 -55 196 -52h14q72 5 136 37
q8 3 15 7q45 25 80.5 61t60.5 80q4 7 7 13q32 65 37 138v14q3 106 -52 196q-5 8 -7 11zM333 132q-48 34 -81 82q-7 9 -12 19l21 80l117 31l85 -86l-31 -116l-80 -22q-10 6 -19 12zM689 652q49 -34 82 -82q6 -9 12 -19l-22 -80l-116 -31l-86 85l31 117l80 22q10 -6 19 -12z
M668 119q-11 -6 -20 -11q-53 -25 -112 -30q-11 -1 -22 -1l-58 58l31 117l115 31l87 -87zM353 664q10 6 20 11q53 26 113 31q12 1 22 1l58 -58l-31 -116l-115 -31l-87 87zM314 570l87 -87l-31 -114l-116 -32l-58 58q0 10 1 22q5 60 31 113q5 10 11 20zM707 214l-87 87l31 115
l117 31l58 -58q0 -10 -1 -22q-5 -59 -30 -112q-5 -9 -11 -20z" />
    <glyph glyph-name="uniE635" unicode="&#xe635;" 
d="M1017 390q0 103 -40 196.5t-108 161t-161.5 107.5t-196 40t-196.5 -40t-161.5 -107.5t-107.5 -161t-40 -196.5t40 -196.5t107.5 -161t161.5 -108t196.5 -40.5t196 40.5t161.5 108t108 161t40 196.5zM336 570h123v32h105v-32h123v-48h-351v48zM368 501h293v-307h-293v307z
M615 467h-29v-242h29v242zM527 467h-29v-242h29v242zM440 465h-29v-242h29v242z" />
    <glyph glyph-name="uniE636" unicode="&#xe636;" 
d="M640 312l243 1q29 -5 43.5 -34.5t7 -62.5t-33.5 -46l-275 -2q-28 7 -43 28.5t-14.5 45t19.5 44.5t53 26zM185 655l466 177l45 -96l-425 -160h-49zM651 271q-13 0 -22.5 -9.5t-9.5 -23.5t9.5 -23.5t23 -9.5t23 10t9.5 23.5t-9.5 23t-23.5 9.5zM753 605l107 1q12 7 11 23.5
t-14 20.5l-120 -1q2 -7 8 -23t8 -21zM459 576l292 2q-27 69 -39 99q-43 -18 -253 -101zM62 545q1 -205 2 -583l3 -11l3 -6l3 -3l2 -2l3 -3l6 -3l803 4q14 7 19 22l2 190q30 16 43.5 51t1 72t-48.5 54l-1 210q1 7 -3.5 14t-12.5 8l-769 -3q6 21 17 32.5t39 14.5q-6 13 -20 43
q-41 -5 -63 -28.5t-29 -72.5z" />
    <glyph glyph-name="uniE637" unicode="&#xe637;" 
d="M403 44q22 21 23 22q8 7 31.5 30t36.5 36q23 22 47 0q25 -24 34 -33q3 -3 3 -6v-78l-1 1l-1 1l-1 1l-1 1l-1 1l-1 1l-1 1l-1 1l-1 1l-1 1l-1 1l-1 1l-1 1h-1l-1 1l-1 1l-1 1l-1 1l-1 1l-1 1l-1 1l-1 1l-1 1l-1 1l-1 1l-1 1l-1 1l-1 1l-1 1l-1 1l-1 1l-1 1l-1 1l-1 1l-1 1
l-2 1l-1 1l-1 1l-1 1l-1 1l-1 1l-1 1l-1 1l-1 1l-1 1l-1 1l-1 1l-1 1l-1 1l-1 1l-1 1h-1l-1 1l-1 1l-1 1l-1 1l-1 1l-1 1l-1 2l-6 -5q-45 -44 -85 -82q-24 -23 -47 0q-15 14 -42.5 40.5t-39.5 38.5q-1 0 -9 8l-5 -5q-46 -44 -82 -79q-23 -23 -46 0q-9 8 -38 36t-45 44
q-12 11 -12 27v338v289q0 41 23 70t62 38q11 3 27 3h540q65 0 98 -51q25 -40 12.5 -85.5t-54.5 -66.5q-10 -5 -17 -7t-7 -9q1 -31 1 -153v-102v-7h-59v265h-9h-503q-22 -1 -30 16q-7 13 0 26.5t22 14.5q25 3 37 12q23 19 18.5 47t-32.5 38q-20 7 -38 0.5t-28 -25.5
q-5 -10 -5 -27v-433v-176q0 -6 5 -11q8 -8 54 -53l5 5q13 12 41 39t42 41q23 22 46 0q2 -1 86 -83zM269 676h7h436q11 0 22 3q23 7 31.5 29t-3.5 42q-15 26 -49 26h-437q-1 0 -7 -1q13 -24 13 -49q0 -26 -13 -50zM752 14q-44 4 -47 5q-39 6 -61 20q-19 13 -19 36q1 86 0 183
q0 22 18 34q21 15 57 21q72 12 131 -9q12 -4 27 -14q15 -11 15 -31v-110v-9h7q48 -1 82 -15q9 -3 18 -9q20 -13 19 -36q-1 -36 0 -85q0 -23 -19 -36q-21 -14 -55 -20q-72 -12 -133 9q-20 7 -32 20q-8 10 -8 22v24zM748 133q40 0 66 8q25 8 34 18q6 6 1 13q-5 8 -12 3
q-1 0 -5 -1q-34 -12 -75 -13q-58 -2 -99 16q-3 1 -4 0q-6 -2 -7.5 -8t3.5 -10q9 -8 19 -12q30 -13 79 -14zM876 4q51 1 79 14q9 4 21 14q5 5 -1 13q-5 6 -11 2q-4 -2 -14 -5q-31 -10 -69 -10q-57 -1 -96 16q-3 1 -5 1q-5 -2 -6.5 -8t2.5 -10q10 -9 20 -13q29 -13 80 -14z
M875 -44q40 0 71 10q20 7 29 16q5 6 0 13q-5 8 -12 4q-1 -1 -7 -3q-41 -14 -94 -12q-45 2 -75 15q-7 3 -12 -3q-6 -8 1 -13q10 -9 16 -12q32 -15 83 -15zM748 181q40 3 43 4q30 4 49 16q6 3 10 9t-2 12q-5 5 -8 3q-29 -13 -69 -15q-66 -5 -113 15q-3 1 -5 0q-6 -3 -6.5 -8.5
t4.5 -9.5q7 -7 17 -12q30 -12 80 -14zM765 112h-13q-56 0 -94 16q-3 1 -5 1q-5 -3 -6.5 -8.5t3.5 -10.5q8 -7 19 -12q23 -10 61 -13h22q0 14 13 27zM751 36v27q-6 1 -7 1q-52 1 -87 16q-2 1 -4 0q-13 -7 -2 -18q3 -4 6 -6q30 -17 94 -20zM417 368q7 3 8 3q95 41 102 45
q10 4 14.5 2t8.5 -12q22 -61 -6.5 -121t-89.5 -80q-65 -22 -124 8.5t-78 95.5q-19 66 15 123.5t100 73.5q24 5 51 3q15 -2 13 -17q0 -6 -7 -64q-6 -43 -7 -54v-6zM406 485q-36 3 -72 -18t-54 -62t-6 -85.5t50 -73.5q34 -26 80 -25.5t80 27.5q24 19 37 46t13.5 51t-5.5 46
q-5 -3 -6 -3q-105 -46 -114 -49.5t-14.5 0.5t-4.5 13q3 20 7.5 57t5.5 47q0 2 3 29zM446 422q10 76 11 85q3 22 4 33q1 9 10 7q64 -10 97 -66q1 -2 4 -9q5 -10 -5 -14q-9 -4 -79 -33q-28 -12 -30 -13q-6 -2 -9 0.5t-3 9.5z" />
    <glyph glyph-name="uniE638" unicode="&#xe638;" 
d="M513 823l-220 -220h-156q-30 0 -51.5 -21.5t-21.5 -51.5v-293q0 -30 21.5 -51.5t51.5 -21.5h156l220 -220q30 0 51.5 21.5t21.5 51.5v733q0 30 -21.5 51.5t-51.5 21.5zM513 20l-193 212h-183v293h183l193 212v-717zM947 351q6 0 9.5 9.5t3.5 23t-3.5 23t-9.5 9.5h-92
q-5 0 -9 -9.5t-4 -23t4 -23t9 -9.5h92zM957 767q5 2 3.5 12.5t-8 22t-14.5 17.5t-13 3l-80 -45q-4 -3 -2.5 -13t8 -21.5t14.5 -18t13 -3.5zM957 0q5 -3 3.5 -13t-8 -21.5t-14.5 -17.5t-13 -4l-80 46q-4 3 -2.5 13t8 21.5t14.5 18t13 3.5zM638 219q-12 31 12 41q63 28 71 110
q5 44 -14 81t-55 53q-13 8 -16.5 20t3.5 24q8 12 20 15.5t24 -3.5q55 -32 83.5 -84t21.5 -113q-5 -51 -34.5 -94t-75.5 -63q-10 -6 -22.5 -2.5t-17.5 15.5zM638 219z" />
    <glyph glyph-name="uniE639" unicode="&#xe639;" 
d="M528 761v72h-49v-72h-398v-127h44v-481h304l-185 -151l31 -38l232 189h1l232 -189l31 38l-185 151h303v481h53v127h-414zM840 202h-666v432h666v-432zM336 314v128h128q0 53 -37.5 90.5t-90.5 37.5t-90.5 -37.5t-37.5 -90.5t37.5 -90.5t90.5 -37.5zM372 279q53 0 91 37.5
t38 90.5h-129v-128zM764 542h-164v-50h164v50zM764 451h-164v-49h164v49zM764 361h-164v-50h164v50z" />
    <glyph glyph-name="uniE63A" unicode="&#xe63a;" 
d="M641 423q-5 0 -5 5q0 44 -31.5 75.5t-75.5 31.5q-5 0 -5 5t5 5q49 0 83 -34t34 -83q0 -5 -5 -5zM608 423q-5 0 -5 5q0 31 -21.5 52.5t-52.5 21.5q-5 0 -5 5t5 5q35 0 59.5 -24.5t24.5 -59.5q0 -2 -1.5 -3.5t-3.5 -1.5zM446 298q-20 0 -34.5 14.5t-14.5 35.5t14 35l25 25
q7 7 14 -0.5t0 -14.5l-24 -24q-9 -9 -9 -21t9 -21q8 -8 20.5 -8t20.5 8l25 25q7 7 14 -0.5t0 -14.5l-24 -24q-15 -15 -36 -15zM506 330q-5 0 -8 5q-26 39 -65 64q-7 5 -3 13l44 93q2 5 6.5 6t8.5 -1q72 -48 119 -119q3 -4 1.5 -8.5t-5.5 -6.5l-93 -45q-2 -1 -5 -1zM452 411
q34 -24 58 -58l74 36q-39 57 -96 97zM503 292q-18 0 -32 14q-8 8 -0.5 15t14.5 0q6 -6 13.5 -8t10.5 2q7 7 14.5 0t0.5 -15q-9 -8 -21 -8z" />
    <glyph glyph-name="uniE63B" unicode="&#xe63b;" 
d="M512 839q91 0 174.5 -35.5t143.5 -96t95.5 -143.5t35.5 -174.5t-35.5 -175t-95.5 -143.5t-143.5 -95.5t-174.5 -35.5q-149 0 -268 89q10 -4 20 -4h368q-4 10 -11.5 17.5t-14.5 11.5t-14.5 6.5t-10.5 3t-5 0.5q5 0 24 16t36 36q116 136 182 117q30 -9 34 -43q2 -19 -7 -30
q-33 -39 -83 -8q-7 5 -13.5 1.5t-7 -9.5t3.5 -9q50 -37 101 -8q37 21 32 66q-5 44 -45 61q-70 28 -173 -66q-21 -20 -43 -45q-20 -22 -50 -40t-50 -24l-20 -7q18 35 18.5 65.5t-9.5 51t-30 42.5q-15 17 -44.5 20t-51 -1t-21.5 -6q14 32 40.5 46.5t55.5 6.5q32 -9 72.5 -24.5
t48.5 -22.5q13 -9 33 -2t35 24q29 34 21 158l69 -60q8 -8 18 -7.5t10 15.5v260q0 1 -1 2.5t-3.5 5t-5.5 5t-8 0t-11 -6.5l-69 -63h-21q-7 8 -18 0h-38q-4 0 -6.5 -0.5t-5 -5t-2.5 -12.5v-113q0 -6 4 -10.5t10 -4.5h35q-2 -79 -5 -85q-4 -9 -10 -15.5t-11 -7.5t-8 1
q-34 35 -66.5 54.5t-48.5 21.5l-15 2q21 2 39 12t29 25.5t17.5 29.5t10 28t4.5 24t-1 12l-1 2q-29 9 -45.5 21t-19.5 22t0.5 22t7.5 17.5t9 9.5q8 8 8.5 13.5t-5.5 17.5q-31 47 -74 71t-85.5 21t-79.5 -22.5t-60 -58t-23 -85.5q0 -4 1.5 -15.5t1.5 -17.5q0 -5 -1.5 -7.5
t-5.5 -7.5t-9 -13q-12 -25 0 -51.5t40.5 -41t59.5 -8.5q29 5 49 -4q-64 -12 -105.5 -43t-57 -70.5t-16 -83.5t12.5 -83t34 -69q-62 62 -96 143.5t-34 172.5q0 92 35.5 175t95.5 143.5t143.5 96t174.5 35.5zM905 498q4 71 -55 120q-8 6 -17.5 -2t-4.5 -16q50 -41 47 -100
q-3 -54 -48 -91q-7 -8 4 -16t17 -3q54 45 57 108zM814 502q-1 -33 -29 -57q-6 -8 3.5 -15.5t17.5 -1.5q35 30 37 73q2 48 -37 82q-6 4 -13 1.5t-9 -7.5t0 -10q32 -27 30 -65zM305 302l7 44l-37 -8l5 34l-32 -11l14 25l-35 -33l44 2l-10 -28l39 8zM273 267l-9 26l-24 -16
l-6 34l-36 -18l-4 39l-8 -55l41 17l1 -31l34 18zM257 226l-19 15l-9 -27l-29 26l-16 -29l-22 31l23 -48l18 33l29 -28l10 28zM274 182l-20 7l2 -29l-34 15l-6 -34l-35 4l46 -24l1 42l40 -15l-7 33zM349.5 153q-4.5 0 -8 -3.5t-3.5 -8t3.5 -8t8 -3.5t8 3.5t3.5 8t-3.5 8
t-8 3.5zM333 132q2 -11 -19.5 -27.5t-43.5 -4.5q16 -1 28 9t20 18.5t15 4.5zM355 119q7 -8 -4.5 -33t-36.5 -25q12 6 18.5 16.5t7.5 19t4.5 15.5t10.5 7zM371 126q6 -1 13.5 -13.5t9.5 -27.5t-12 -29q6 15 0 30.5t-11.5 22.5t0.5 17zM372 148q10 6 33.5 -8t20.5 -38
q-4 12 -14 19t-18.5 9.5t-15 6.5t-6.5 11zM360 164q2 6 14.5 12t29.5 5t27 -15q-15 8 -31 4t-23.5 -8.5t-16.5 2.5zM340 164q-5 10 10.5 32.5t39.5 17.5q-12 -3 -20 -12t-11 -17.5t-7.5 -15t-11.5 -5.5zM422 468q2 -2 4 -5t4.5 -11.5t-5.5 -16.5q-6 8 -7 16t2 13zM397 477
q14 -22 -6 -39q-5 13 -4 21.5t6 13.5zM369 484q9 -22 -11 -34q-3 12 -0.5 19.5t6.5 10.5zM343 494q0 -1 0.5 -2.5t0.5 -5.5t-1.5 -7t-5.5 -6.5t-10 -5.5q-2 10 1.5 16.5t8.5 8.5zM322 514q0 -3 -1 -6.5t-6.5 -9.5t-15.5 -5q0 10 6 15.5t11 5.5h6zM276 519q1 2 2.5 5.5t9.5 9
t19 4.5q-4 -10 -11.5 -15t-13.5 -5zM261 549q1 2 3.5 4.5t12 7t19.5 -2.5q-7 -9 -15.5 -11t-14.5 0zM254 583q1 1 2.5 2t5.5 3.5t8 3.5t10.5 0t13.5 -5q-9 -9 -19 -10t-15 3zM259 616q2 1 5.5 3t13 1t16.5 -10q-11 -6 -19 -5t-12 6zM271 654q1 0 2.5 0.5t5.5 0.5t7.5 -1
t7 -4.5t5.5 -10.5q-10 -3 -17 1t-9 9zM293 682h7q3 0 9.5 -5t7.5 -16q-10 0 -16 5t-7 10zM324 705l6 -2q3 -1 7.5 -7.5t2.5 -16.5q-9 2 -13 8.5t-4 11.5zM358 716q2 -1 4.5 -2.5t6.5 -8.5t-2 -15q-8 4 -10 10.5t-1 11.5zM390 720q2 -1 4 -3.5t5 -9.5t-4 -15q-8 6 -9 13t2 11
zM428 716q13 -14 -2 -28q-6 8 -5.5 14.5t3.5 9.5zM225 542q-14 -9 -18.5 -23t1 -27.5t17 -24.5t29.5 -16t37 -1q-43 -24 -83 6q-31 25 -23 54q6 23 40 32zM253 535q-12 -12 -12.5 -27t13.5 -25.5t34 -6.5q-30 -18 -50 6q-19 21 -3 41q6 7 18 12zM430 644q-22 0 -37.5 -15.5
t-15.5 -37.5t15.5 -37.5t37.5 -15.5q16 0 29.5 8.5t19.5 22.5q0 -1 1 -1q4 -1 27.5 -20t22.5 -21l-8 -20q10 7 13.5 1t-0.5 -19q-5 -18 -21 -34t-38 -11q-15 4 -21.5 17t-5 26.5t6.5 23.5q-69 -19 -102 13.5t-21 84.5q7 30 29 46.5t46.5 17t45.5 -15.5t26 -45v-2
q-6 15 -19.5 24.5t-30.5 9.5zM445 620q-17 0 -26 -14h2q6 0 10 -4t4 -10t-4 -10.5t-10 -4.5q-2 0 -4 1q8 -18 28 -18q9 0 16 4q-12 -15 -32 -15q-17 0 -29.5 12.5t-12.5 30t12.5 30t29.5 12.5q26 0 38 -22q-9 8 -22 8z" />
    <glyph glyph-name="uniE63C" unicode="&#xe63c;" 
d="M930 670l-28 36l-193 -146l27 -36zM810 398l163 30l-9 45l-163 -31zM703 806l-42 17l-68 -161l42 -18zM491 727q-21 26 -50 26q-32 0 -51 -32l-296 -493q-16 -26 -14 -60.5t20 -58.5l25 -34q14 -19 38 -30t49 -11q14 0 26 3l51 15l16 -29q10 -19 31.5 -30.5t46.5 -11.5
q12 0 24 3l187 47q34 8 46.5 37t-3.5 59l-12 23l165 48q34 9 43.5 38.5t-12.5 57.5zM597 105q6 -10 2 -18.5t-15 -11.5l-188 -47q-16 -4 -31 1.5t-20 14.5l-11 21l246 72zM790 250.5q-2 -6.5 -13 -9.5l-551 -160q-6 -2 -14 -2q-33 0 -50 23l-26 34q-10 13 -11 34t8 35
l295 493q7 10 13 10q7 0 14 -9l330 -433q7 -9 5 -15.5z" />
    <glyph glyph-name="uniE63D" unicode="&#xe63d;" 
d="M732 422q0 -9 9.5 -9t9.5 9q0 83 -58.5 141.5t-141.5 58.5q-9 0 -9 -9.5t9 -9.5q76 0 128.5 -52.5t52.5 -128.5zM375 685q-17 17 -42 17q-12 0 -23 -4q-17 -7 -27.5 -22.5t-10.5 -33.5v-276l-62 -62q-17 -17 -17 -42t17 -43l141 -141q17 -17 42 -17t42 17l62 62h275
q19 0 34 10t22 28q15 37 -12 65zM469 171l-62 -62q-6 -6 -14 -6q-9 0 -14 6l-141 141q-6 6 -6 14q0 9 6 14l62 62zM497 182q-2 0 -5 -0.5t-4 -0.5l-178 178q0 1 0.5 4t0.5 5v241l426 -425zM791 195q-5 -13 -19 -13h-6l-455 455v7q0 13 12 18q4 2 8 2q10 0 14 -7l441 -441
q11 -7 5 -21zM553 664q99 0 169.5 -70.5t70.5 -169.5q0 -8 6 -14t14 -6t14 6t6 14q0 116 -82 198t-198 82q-9 0 -15 -6t-6 -14q0 -9 6 -14.5t15 -5.5z" />
    <glyph glyph-name="uniE63E" unicode="&#xe63e;" 
d="M563 441q3 389 0 389q111 0 200 -50t139.5 -139.5t50.5 -199.5h-390zM921 361q0 -115 -56.5 -212.5t-154 -154t-212 -56.5t-212 56.5t-154 154t-56.5 212t56.5 212t154 154t211.5 56.5q12 0 33 -2v-373h387q3 -23 3 -47zM886 374h-388v376q-106 0 -195.5 -52t-141.5 -142
t-52 -195.5t52 -195.5t141.5 -142t195.5 -52t196 52t142 142t52 196l-1 21z" />
    <glyph glyph-name="uniE640" unicode="&#xe640;" 
d="M331 -27h376v117h-376v-117zM362 60h314v-56h-314v56zM530 383q-37 0 -62.5 -25.5t-25.5 -61.5t25.5 -62t62 -26t62 26t25.5 62q0 5 -1 11l185 154l-229 -89q-20 11 -42 11zM529.5 239q-23.5 0 -40 16.5t-16.5 40t16.5 40t40 16.5t40 -16.5t16.5 -40t-16.5 -40t-40 -16.5
zM985 347q-2 123 -64 216q-65 101 -188 156q-103 46 -209 47h-2v0h-2q-106 -1 -209 -47q-123 -55 -188 -156q-62 -93 -64 -216q-2 -138 71 -305l28 13v1l52 30l-15 27l-49 -28q-44 107 -54 200h60v31h-62q-5 110 39 196l52 -28l15 27l-52 28l4 8q48 72 130 121l39 -39l22 22
l-33 32q97 48 202 52v-58h31v58q102 -5 196 -51l-33 -33l22 -21l39 39q85 -49 133 -122q1 -2 3 -5l-51 -28l14 -27l52 28q45 -87 40 -198v2h-62v-30h60q-10 -95 -54 -205l-54 30l-15 -27l57 -32v0l8 -4l4 -2l16 -7q73 167 71 305z" />
    <glyph glyph-name="uniE641" unicode="&#xe641;" horiz-adv-x="1449" 
d="M1210 520q-89 89 -213 106v127v1v2q0 61 -121 98q-110 33 -264 33t-263 -33q-121 -37 -121 -99v-8v-91q-20 -9 -37 -18q-66 -37 -65 -82v-9v-140q0 -30 26 -55q25 -24 75 -42v-118q0 -31 28 -58q44 -41 146 -65.5t206 -24.5h27q20 -29 45 -55q54 -53 122.5 -81.5
t143.5 -28.5t143.5 28.5t121.5 81.5t81.5 121.5t28.5 144t-28.5 144t-81.5 121.5zM270 630v63q29 -21 79 -35q110 -34 263 -34q154 0 264 34q50 15 80 35v-63h-11q-75 0 -143.5 -28.5t-122.5 -81.5q-8 -9 -18 -20q-120 -5 -231.5 20.5t-148.5 60.5q-11 10 -11 17h-1v29h1v3z
M361 814q104 32 251.5 32t251.5 -32q47 -14 69.5 -30t22.5 -28.5t-22.5 -28.5t-69.5 -30q-104 -31 -251.5 -31t-251.5 31q-47 14 -69.5 30t-22.5 28.5t22.5 28.5t69.5 30zM228 611v-12h1q0 -25 23 -48q43 -40 149 -66.5t222 -26.5q-149 -18 -280 8q-111 24 -160 66
q-16 14 -16 24q0 26 61 55zM180 382q-11 11 -13 21v89q59 -43 168 -66q80 -16 171 -16q50 0 99 4q-24 -50 -32 -105q-122 -6 -236 14q-117 21 -157 59zM570 229q-73 -2 -142 15t-115 42q99 -20 211 -20q23 0 46 1q-1 -4 -1 -12q0 -12 1 -26zM283 165q-14 13 -15 26v75
q49 -36 133 -58q77 -21 156 -21q6 0 18 1q10 -54 35 -103q-99 0 -195 23t-132 57zM945 -80q-91 0 -168 45t-121.5 122t-44.5 167.5t44.5 167.5t121.5 121.5t167.5 44.5t167.5 -44.5t122 -121.5t45 -167.5t-45 -167.5t-122 -122t-167 -45zM945 -80zM1054 464l-66 -122
q-27 -50 -33 -66h-1q-17 39 -99 188h-62l116 -199h-95v-44h111v-61h-111v-45h111v-89h56v89h108v45h-108v61h108v44h-93l117 199h-59zM1054 464z" />
    <glyph glyph-name="uE6131" unicode="&#xe6131;" 
d="M512 832l-361 -209l363 -210l362 209zM116 145l362 -209v420l-362 209v-420zM546 353v-417l362 209v418z" />
  </font>
</defs>
</svg>
